<svg width="37.000000" height="37.000000" viewBox="0 0 37 37" fill="none" xmlns="http://www.w3.org/2000/svg" xmlns:xlink="http://www.w3.org/1999/xlink">
	<desc>
			Created with Pixso.
	</desc>
	<defs/>
	<circle id="Shape-53" cx="18.499878" cy="17.500244" r="18.500000" fill="#FFD93B" fill-opacity="1.000000"/>
	<path id="Shape-54" d="M18.5 29.39C13.09 29.39 8.37 25.72 7.04 20.48C6.97 20.21 7.04 19.93 7.24 19.73C7.44 19.54 7.72 19.46 7.99 19.54C8.26 19.62 8.46 19.83 8.53 20.1C9.69 24.66 13.79 27.85 18.5 27.85C23.2 27.85 27.3 24.66 28.46 20.1C28.57 19.69 28.99 19.45 29.4 19.55C29.81 19.66 30.06 20.07 29.96 20.48C28.62 25.72 23.91 29.39 18.5 29.39Z" fill="#3E4347" fill-opacity="1.000000" fill-rule="evenodd"/>
	<path id="Shape-55" d="M36.99 17.5C36.99 25.34 32.05 32.33 24.65 34.94C17.26 37.55 9.02 35.22 4.1 29.11C11.46 35.04 22.1 34.47 28.79 27.79C35.47 21.11 36.04 10.46 30.11 3.1C34.47 6.61 37 11.9 36.99 17.5Z" fill="#F4C534" fill-opacity="1.000000" fill-rule="evenodd"/>
	<ellipse id="Shape-56" cx="12.530945" cy="14.925049" rx="2.835000" ry="3.369000" fill="#3E4347" fill-opacity="1.000000"/>
	<path id="Shape-57" d="M13.8 14.2C13.52 14.36 13.16 14.27 12.99 14C12.81 13.87 12.73 13.64 12.79 13.43C12.85 13.22 13.04 13.07 13.26 13.05C13.48 13.03 13.69 13.15 13.78 13.35C14.01 13.58 14.02 13.95 13.8 14.2Z" fill="#5A5F63" fill-opacity="1.000000" fill-rule="evenodd"/>
	<ellipse id="Shape-58" cx="24.480896" cy="14.925049" rx="2.835000" ry="3.369000" fill="#3E4347" fill-opacity="1.000000"/>
	<path id="Shape-59" d="M25.75 14.2C25.47 14.36 25.11 14.27 24.93 14C24.76 13.87 24.68 13.64 24.74 13.43C24.8 13.22 24.99 13.07 25.21 13.05C25.43 13.03 25.63 13.15 25.73 13.35C25.96 13.58 25.97 13.95 25.75 14.2Z" fill="#5A5F63" fill-opacity="1.000000" fill-rule="evenodd"/>
</svg>
