<svg width="44.000000" height="42.000000" viewBox="0 0 44 42" fill="none" xmlns="http://www.w3.org/2000/svg" xmlns:xlink="http://www.w3.org/1999/xlink">
	<desc>
			Created with Pixso.
	</desc>
	<defs/>
	<path id="Shape-10" d="M13.57 11.98L21 0.06C21.12 -0.15 21.35 -0.29 21.6 -0.29C21.85 -0.29 22.08 -0.15 22.2 0.06L29.63 11.98L13.57 11.98Z" fill="#955BA5" fill-opacity="1.000000" fill-rule="evenodd"/>
	<path id="Shape-11" d="M9.36 1.16C8.96 1.16 8.64 0.83 8.64 0.44L8.64 -0.28C8.64 -0.68 8.96 -1 9.36 -1C9.75 -1 10.08 -0.68 10.08 -0.28L10.08 0.44C10.08 0.63 10 0.81 9.87 0.94C9.73 1.08 9.55 1.16 9.36 1.16Z" fill="#F0C419" fill-opacity="1.000000" fill-rule="evenodd"/>
	<path id="Shape-12" d="M9.36 4.76C8.96 4.76 8.64 4.43 8.64 4.04L8.64 3.32C8.64 2.92 8.96 2.6 9.36 2.6C9.75 2.6 10.08 2.92 10.08 3.32L10.08 4.04C10.08 4.43 9.75 4.76 9.36 4.76Z" fill="#F0C419" fill-opacity="1.000000" fill-rule="evenodd"/>
	<path id="Shape-13" d="M7.92 2.6L7.2 2.6C6.8 2.6 6.48 2.27 6.48 1.88C6.48 1.48 6.8 1.16 7.2 1.16L7.92 1.16C8.31 1.16 8.64 1.48 8.64 1.88C8.64 2.27 8.31 2.6 7.92 2.6Z" fill="#F0C419" fill-opacity="1.000000" fill-rule="evenodd"/>
	<path id="Shape-14" d="M11.52 2.6L10.8 2.6C10.4 2.6 10.08 2.27 10.08 1.88C10.08 1.48 10.4 1.16 10.8 1.16L11.52 1.16C11.91 1.16 12.24 1.48 12.24 1.88C12.24 2.27 11.91 2.6 11.52 2.6Z" fill="#F0C419" fill-opacity="1.000000" fill-rule="evenodd"/>
	<path id="Shape-15" d="M2.88 9.08C2.48 9.08 2.15 8.75 2.15 8.36L2.15 7.64C2.15 7.24 2.48 6.92 2.88 6.92C3.27 6.92 3.59 7.24 3.59 7.64L3.59 8.36C3.59 8.75 3.27 9.08 2.88 9.08Z" fill="#F0C419" fill-opacity="1.000000" fill-rule="evenodd"/>
	<path id="Shape-16" d="M2.88 12.68C2.48 12.68 2.15 12.36 2.15 11.96L2.15 11.24C2.15 10.84 2.48 10.52 2.88 10.52C3.27 10.52 3.59 10.84 3.59 11.24L3.59 11.96C3.59 12.36 3.27 12.68 2.88 12.68Z" fill="#F0C419" fill-opacity="1.000000" fill-rule="evenodd"/>
	<path id="Shape-17" d="M1.43 10.52L0.71 10.52C0.32 10.52 -0.01 10.19 -0.01 9.8C-0.01 9.4 0.32 9.08 0.71 9.08L1.43 9.08C1.83 9.08 2.16 9.4 2.16 9.8C2.16 10.19 1.83 10.52 1.43 10.52Z" fill="#F0C419" fill-opacity="1.000000" fill-rule="evenodd"/>
	<path id="Shape-18" d="M5.04 10.52L4.32 10.52C3.92 10.52 3.6 10.19 3.6 9.8C3.6 9.4 3.92 9.08 4.32 9.08L5.04 9.08C5.43 9.08 5.76 9.4 5.76 9.8C5.76 10.19 5.43 10.52 5.04 10.52Z" fill="#F0C419" fill-opacity="1.000000" fill-rule="evenodd"/>
	<path id="Shape-19" d="M33.12 2.6C32.72 2.6 32.4 2.27 32.4 1.88L32.4 1.16C32.4 0.76 32.72 0.44 33.12 0.44C33.52 0.44 33.84 0.76 33.84 1.16L33.84 1.88C33.84 2.27 33.52 2.6 33.12 2.6Z" fill="#F0C419" fill-opacity="1.000000" fill-rule="evenodd"/>
	<path id="Shape-20" d="M33.12 6.2C32.72 6.2 32.4 5.87 32.4 5.48L32.4 4.76C32.4 4.36 32.72 4.04 33.12 4.04C33.52 4.04 33.84 4.36 33.84 4.76L33.84 5.48C33.84 5.87 33.52 6.2 33.12 6.2Z" fill="#F0C419" fill-opacity="1.000000" fill-rule="evenodd"/>
	<path id="Shape-21" d="M31.68 4.04L30.96 4.04C30.7 4.04 30.46 3.9 30.34 3.68C30.21 3.45 30.21 3.18 30.34 2.96C30.46 2.73 30.7 2.6 30.96 2.6L31.68 2.6C31.94 2.6 32.18 2.73 32.3 2.96C32.43 3.18 32.43 3.45 32.3 3.68C32.18 3.9 31.94 4.04 31.68 4.04L31.68 4.04Z" fill="#F0C419" fill-opacity="1.000000" fill-rule="evenodd"/>
	<path id="Shape-22" d="M35.28 4.04L34.56 4.04C34.3 4.04 34.07 3.9 33.94 3.68C33.81 3.45 33.81 3.18 33.94 2.96C34.07 2.73 34.3 2.6 34.56 2.6L35.28 2.6C35.54 2.6 35.78 2.73 35.91 2.96C36.03 3.18 36.03 3.45 35.91 3.68C35.78 3.9 35.54 4.04 35.28 4.04L35.28 4.04Z" fill="#F0C419" fill-opacity="1.000000" fill-rule="evenodd"/>
	<path id="Shape-23" d="M40.32 9.8C39.92 9.8 39.6 9.47 39.6 9.08L39.6 8.36C39.6 7.96 39.92 7.64 40.32 7.64C40.72 7.64 41.04 7.96 41.04 8.36L41.04 9.08C41.04 9.47 40.72 9.8 40.32 9.8Z" fill="#F0C419" fill-opacity="1.000000" fill-rule="evenodd"/>
	<path id="Shape-24" d="M40.32 13.4C39.92 13.4 39.6 13.08 39.6 12.68L39.6 11.96C39.6 11.56 39.92 11.24 40.32 11.24C40.72 11.24 41.04 11.56 41.04 11.96L41.04 12.68C41.04 13.08 40.72 13.4 40.32 13.4Z" fill="#F0C419" fill-opacity="1.000000" fill-rule="evenodd"/>
	<path id="Shape-25" d="M38.88 11.24L38.16 11.24C37.76 11.24 37.44 10.91 37.44 10.52C37.44 10.12 37.76 9.8 38.16 9.8L38.88 9.8C39.28 9.8 39.6 10.12 39.6 10.52C39.6 10.91 39.28 11.24 38.88 11.24Z" fill="#F0C419" fill-opacity="1.000000" fill-rule="evenodd"/>
	<path id="Shape-26" d="M42.48 11.24L41.76 11.24C41.36 11.24 41.04 10.91 41.04 10.52C41.04 10.12 41.36 9.8 41.76 9.8L42.48 9.8C42.88 9.8 43.2 10.12 43.2 10.52C43.2 10.91 42.88 11.24 42.48 11.24Z" fill="#F0C419" fill-opacity="1.000000" fill-rule="evenodd"/>
	<path id="Shape-27" d="M37.44 25.64C37.44 32.05 33.58 37.83 27.66 40.28C21.74 42.73 14.93 41.37 10.39 36.84C5.86 32.31 4.51 25.5 6.96 19.58C9.41 13.66 15.19 9.8 21.6 9.8C25.8 9.8 29.83 11.47 32.8 14.44C35.77 17.41 37.44 21.44 37.44 25.64Z" fill="#F0C419" fill-opacity="1.000000" fill-rule="evenodd"/>
	<path id="Shape-28" d="M18.72 22.04C18.5 22.04 18.29 21.94 18.16 21.77C17.62 21.04 16.75 20.6 15.84 20.6C14.92 20.6 14.06 21.04 13.52 21.77C13.27 22.08 12.81 22.13 12.5 21.88C12.19 21.63 12.15 21.18 12.4 20.87C13.21 19.79 14.49 19.16 15.84 19.16C17.19 19.16 18.46 19.79 19.28 20.87C19.45 21.08 19.49 21.38 19.37 21.63C19.25 21.88 19 22.04 18.72 22.04Z" fill="#E57E25" fill-opacity="1.000000" fill-rule="evenodd"/>
	<path id="Shape-29" d="M12.96 18.44C12.73 18.44 12.51 18.33 12.37 18.14C12.24 17.95 12.2 17.71 12.27 17.49C12.98 15.77 14.71 14.7 16.56 14.84C16.95 14.84 17.28 15.16 17.28 15.56C17.28 15.96 16.95 16.28 16.56 16.28C15.33 16.15 14.15 16.82 13.64 17.95C13.54 18.24 13.27 18.44 12.96 18.44Z" fill="#2C2F38" fill-opacity="1.000000" fill-rule="evenodd"/>
	<path id="Shape-30" d="M30.24 22.04C30.02 22.04 29.81 21.94 29.68 21.77C29.14 21.03 28.27 20.6 27.36 20.6C26.44 20.6 25.58 21.03 25.04 21.77C24.79 22.08 24.33 22.13 24.03 21.88C23.72 21.63 23.67 21.17 23.92 20.86C24.73 19.79 26.01 19.16 27.36 19.16C28.71 19.16 29.98 19.79 30.8 20.86C30.98 21.08 31.01 21.38 30.89 21.63C30.77 21.88 30.52 22.04 30.24 22.04L30.24 22.04Z" fill="#E57E25" fill-opacity="1.000000" fill-rule="evenodd"/>
	<path id="Shape-31" d="M30.24 18.44C29.93 18.44 29.66 18.24 29.56 17.95C29.04 16.83 27.87 16.16 26.64 16.28C26.24 16.28 25.92 15.96 25.92 15.56C25.92 15.16 26.24 14.84 26.64 14.84C28.49 14.7 30.22 15.77 30.92 17.49C30.99 17.71 30.96 17.95 30.82 18.14C30.69 18.33 30.47 18.44 30.24 18.44L30.24 18.44Z" fill="#2C2F38" fill-opacity="1.000000" fill-rule="evenodd"/>
	<path id="Shape-32" d="M32.4 27.45C32.4 27.95 32.39 28.44 32.35 28.94C32.31 29.5 32.24 30.06 32.13 30.62C32.12 30.67 32.12 30.73 32.1 30.78C31.83 32.15 31.18 33.43 30.24 34.46C29.86 34.9 29.43 35.29 28.96 35.63C28.25 36.18 27.47 36.62 26.64 36.96C26.51 37.01 26.39 37.06 26.26 37.1C25.92 37.23 25.58 37.33 25.23 37.42C24.28 37.67 23.3 37.82 22.32 37.86C22.07 37.87 21.83 37.88 21.6 37.88C21.36 37.88 21.12 37.87 20.88 37.86C19.89 37.82 18.91 37.67 17.96 37.42C17.62 37.33 17.28 37.23 16.94 37.1C16.81 37.06 16.68 37.01 16.55 36.96C15.72 36.62 14.94 36.18 14.23 35.63C13.76 35.29 13.34 34.9 12.96 34.46C12.01 33.43 11.36 32.15 11.09 30.78C11.08 30.73 11.07 30.67 11.06 30.62C10.95 30.06 10.88 29.5 10.85 28.94C10.8 28.44 10.79 27.95 10.79 27.45C10.8 27.25 10.8 27.04 10.82 26.83C10.82 26.68 10.82 26.53 10.84 26.39C10.86 26.26 10.88 26.13 10.87 26C10.87 26 11.13 26.19 11.57 26.5L11.58 26.5C11.94 26.74 12.44 27.05 13.05 27.39C13.45 27.62 13.91 27.86 14.4 28.09C15.11 28.43 15.85 28.73 16.6 28.98C17.05 29.13 17.52 29.27 18 29.38C18.94 29.61 19.91 29.75 20.88 29.8C21.06 29.8 21.25 29.81 21.45 29.81L21.75 29.81C21.94 29.81 22.13 29.8 22.31 29.8C23.29 29.75 24.25 29.61 25.2 29.38C25.68 29.26 26.14 29.13 26.6 28.98C27.35 28.73 28.08 28.43 28.79 28.09C29.28 27.86 29.74 27.62 30.14 27.39C30.75 27.05 31.26 26.74 31.62 26.49C32.07 26.19 32.32 25.99 32.32 25.99C32.32 26.12 32.33 26.25 32.35 26.38C32.37 26.53 32.37 26.68 32.37 26.82C32.39 27.03 32.39 27.24 32.4 27.45L32.4 27.45Z" fill="#FFFFFF" fill-opacity="1.000000" fill-rule="evenodd"/>
	<path id="Shape-33" d="M32.35 28.94C32.31 29.5 32.24 30.06 32.13 30.62C31.53 31.04 30.89 31.42 30.24 31.77C29.81 32.01 29.33 32.25 28.8 32.49C28.1 32.81 27.38 33.09 26.64 33.32C26.18 33.47 25.7 33.61 25.2 33.72C24.25 33.94 23.29 34.08 22.32 34.12C22.13 34.12 21.95 34.13 21.75 34.13L21.45 34.13C21.26 34.13 21.07 34.12 20.88 34.12C19.91 34.08 18.95 33.94 18 33.72C17.5 33.61 17.02 33.47 16.56 33.32C15.83 33.09 15.1 32.81 14.4 32.49C13.88 32.25 13.39 32.01 12.96 31.77C12.31 31.42 11.68 31.04 11.07 30.62C10.96 30.06 10.89 29.5 10.85 28.94C11.04 28.91 11.23 28.96 11.38 29.07C11.89 29.46 12.41 29.81 12.96 30.13C13.37 30.37 13.86 30.64 14.4 30.9C15.1 31.25 15.82 31.55 16.56 31.81C17.02 31.97 17.51 32.12 18 32.24C18.94 32.49 19.91 32.63 20.88 32.68C21.07 32.69 21.26 32.7 21.45 32.7L21.75 32.7C21.95 32.7 22.13 32.69 22.32 32.68C23.29 32.63 24.26 32.49 25.2 32.24C25.7 32.12 26.18 31.97 26.64 31.81C27.38 31.55 28.1 31.25 28.8 30.9C29.35 30.64 29.83 30.37 30.24 30.13C30.79 29.81 31.32 29.46 31.82 29.07C31.97 28.96 32.16 28.91 32.35 28.94Z" fill="#E6E7E8" fill-opacity="1.000000" fill-rule="evenodd"/>
	<path id="Shape-34" d="M22.32 29.8L22.32 37.86C22.07 37.87 21.84 37.88 21.6 37.88C21.36 37.88 21.12 37.87 20.88 37.86L20.88 29.8C21.06 29.81 21.25 29.82 21.45 29.82L21.75 29.82C21.94 29.82 22.13 29.81 22.32 29.8Z" fill="#E6E7E8" fill-opacity="1.000000" fill-rule="evenodd"/>
	<path id="Shape-35" d="M18 29.38L18 37.22C18 37.29 17.99 37.36 17.96 37.42C17.62 37.33 17.28 37.23 16.94 37.1C16.81 37.06 16.68 37.01 16.56 36.96L16.56 29.19C16.56 29.12 16.57 29.05 16.59 28.98C17.05 29.13 17.52 29.27 18 29.38Z" fill="#E6E7E8" fill-opacity="1.000000" fill-rule="evenodd"/>
	<path id="Shape-36" d="M14.4 28.1L14.4 35.18C14.4 35.35 14.34 35.51 14.23 35.64C13.76 35.29 13.34 34.9 12.96 34.46L12.96 27.74C12.95 27.62 12.99 27.5 13.05 27.4C13.45 27.63 13.91 27.86 14.4 28.1L14.4 28.1Z" fill="#E6E7E8" fill-opacity="1.000000" fill-rule="evenodd"/>
	<path id="Shape-37" d="M30.24 27.74L30.24 34.46C29.86 34.9 29.43 35.29 28.97 35.63C28.86 35.51 28.8 35.35 28.8 35.18L28.8 28.09C29.29 27.86 29.74 27.63 30.15 27.39C30.21 27.5 30.24 27.62 30.24 27.74L30.24 27.74Z" fill="#E6E7E8" fill-opacity="1.000000" fill-rule="evenodd"/>
	<path id="Shape-38" d="M26.64 29.19L26.64 36.96C26.51 37.01 26.38 37.06 26.25 37.1C25.92 37.23 25.58 37.33 25.23 37.42C25.2 37.36 25.19 37.29 25.2 37.22L25.2 29.39C25.68 29.27 26.15 29.13 26.6 28.99C26.62 29.05 26.63 29.12 26.63 29.19L26.64 29.19Z" fill="#E6E7E8" fill-opacity="1.000000" fill-rule="evenodd"/>
	<path id="Shape-39" d="M8.99 28.25C8.76 28.25 8.53 28.13 8.4 27.93C8.27 27.74 8.24 27.49 8.33 27.27C8.42 27.05 9.3 25.13 13.23 24.66C13.62 24.61 13.98 24.9 14.03 25.29C14.07 25.69 13.79 26.04 13.4 26.09C10.33 26.46 9.66 27.81 9.65 27.82C9.53 28.08 9.28 28.24 8.99 28.25L8.99 28.25Z" fill="#E57E25" fill-opacity="1.000000" fill-rule="evenodd"/>
	<path id="Shape-40" d="M34.2 28.26C33.91 28.26 33.65 28.09 33.54 27.83C33.51 27.78 32.82 26.46 29.79 26.1C29.4 26.05 29.12 25.7 29.16 25.3C29.21 24.91 29.57 24.62 29.96 24.67C33.89 25.14 34.78 27.06 34.86 27.28C34.95 27.5 34.93 27.75 34.79 27.95C34.66 28.15 34.44 28.27 34.2 28.27L34.2 28.26Z" fill="#E57E25" fill-opacity="1.000000" fill-rule="evenodd"/>
	<path id="Shape-41" d="M25.96 6.09C23.11 5.27 20.09 5.27 17.24 6.09L21 0.06C21.12 -0.16 21.35 -0.29 21.6 -0.29C21.85 -0.29 22.08 -0.16 22.2 0.06L25.96 6.09Z" fill="#B49ACA" fill-opacity="1.000000" fill-rule="evenodd"/>
</svg>
