<svg width="32.000000" height="32.000000" viewBox="0 0 32 32" fill="none" xmlns="http://www.w3.org/2000/svg" xmlns:xlink="http://www.w3.org/1999/xlink">
	<desc>
			Created with Pixso.
	</desc>
	<defs/>
	<circle id="Shape-42" cx="16.000000" cy="15.000244" r="16.000000" fill="#FFD93B" fill-opacity="1.000000"/>
	<path id="Shape-43" d="M25.79 19.98C24.14 23.93 20.28 26.5 16 26.5C11.72 26.5 7.86 23.93 6.21 19.98C6.05 19.62 6.09 19.21 6.32 18.89C6.54 18.57 6.92 18.39 7.31 18.41C13.09 18.78 18.89 18.78 24.68 18.41C25.07 18.39 25.44 18.57 25.67 18.89C25.9 19.21 25.94 19.62 25.79 19.98Z" fill="#3E4347" fill-opacity="1.000000" fill-rule="evenodd"/>
	<path id="Shape-44" d="M31.57 15C31.57 21.6 27.41 27.49 21.18 29.69C14.95 31.89 8.01 29.92 3.87 24.77C10.06 29.77 19.03 29.29 24.66 23.66C30.29 18.03 30.77 9.07 25.77 2.87C29.44 5.83 31.57 10.28 31.57 15L31.57 15Z" fill="#F4C534" fill-opacity="1.000000" fill-rule="evenodd"/>
	<ellipse id="Shape-45" cx="9.580078" cy="10.713135" rx="5.655000" ry="5.660000" fill="#FFFFFF" fill-opacity="1.000000"/>
	<path id="Shape-46" d="M13.62 10.35C13.63 11.51 12.93 12.56 11.86 13C10.79 13.45 9.55 13.2 8.73 12.38C7.91 11.56 7.67 10.33 8.11 9.26C8.56 8.18 9.6 7.49 10.76 7.49C11.52 7.49 12.25 7.79 12.79 8.32C13.32 8.86 13.63 9.59 13.62 10.35Z" fill="#3E4347" fill-opacity="1.000000" fill-rule="evenodd"/>
	<path id="Shape-47" d="M12.41 9.81C12.21 10.01 11.81 9.91 11.5 9.61C11.2 9.3 11.1 8.91 11.3 8.7C11.5 8.5 11.9 8.6 12.21 8.9C12.51 9.2 12.61 9.61 12.41 9.81Z" fill="#FFFFFF" fill-opacity="1.000000" fill-rule="evenodd"/>
	<ellipse id="Shape-48" cx="22.420044" cy="10.713135" rx="5.655000" ry="5.660000" fill="#FFFFFF" fill-opacity="1.000000"/>
	<path id="Shape-49" d="M18.09 10.35C18.08 11.51 18.78 12.56 19.85 13C20.92 13.45 22.16 13.2 22.98 12.38C23.8 11.56 24.04 10.33 23.6 9.26C23.15 8.18 22.11 7.49 20.95 7.49C20.19 7.49 19.46 7.79 18.92 8.32C18.39 8.86 18.08 9.59 18.09 10.35Z" fill="#3E4347" fill-opacity="1.000000" fill-rule="evenodd"/>
	<path id="Shape-50" d="M19.3 9.81C19.5 10.01 19.9 9.91 20.21 9.61C20.51 9.3 20.61 8.91 20.41 8.7C20.21 8.5 19.81 8.6 19.5 8.9C19.2 9.2 19.09 9.61 19.3 9.81Z" fill="#FFFFFF" fill-opacity="1.000000" fill-rule="evenodd"/>
	<path id="Shape-51" d="M7.31 18.41C7.24 18.41 7.17 18.41 7.11 18.43C8.92 20.87 12.21 21.01 15.99 21.01C19.77 21.01 23.07 20.87 24.87 18.43C24.81 18.42 24.74 18.41 24.67 18.41C18.89 18.78 13.09 18.78 7.31 18.41L7.31 18.41Z" fill="#FFFFFF" fill-opacity="1.000000" fill-rule="evenodd"/>
	<path id="Shape-52" d="M15.99 26.5C17.56 26.5 19.1 26.15 20.52 25.48C20.46 24.39 20.01 23.35 19.24 22.57C18.63 21.96 17.73 21.75 16.92 22.03C16.16 22.3 15.35 22.44 14.54 22.43C13.07 22.44 11.82 23.49 11.54 24.93C11.51 25.12 11.5 25.31 11.49 25.49C12.9 26.15 14.44 26.5 15.99 26.5Z" fill="#E24B4B" fill-opacity="1.000000" fill-rule="evenodd"/>
</svg>
